<?xml version="1.0" standalone="no"?>
<!DOCTYPE svg PUBLIC "-//W3C//DTD SVG 20010904//EN"
 "http://www.w3.org/TR/2001/REC-SVG-20010904/DTD/svg10.dtd">
<svg version="1.0" xmlns="http://www.w3.org/2000/svg"
 width="1811.000000pt" height="1811.000000pt" viewBox="0 0 1811.000000 1811.000000"
 preserveAspectRatio="xMidYMid meet">

<g transform="translate(0.000000,1811.000000) scale(0.100000,-0.100000)"
fill="#000000" stroke="none">
<path d="M8985 15284 c-22 -2 -96 -8 -165 -14 -534 -46 -1060 -189 -1501 -410
-281 -141 -571 -340 -888 -607 -169 -143 -472 -449 -589 -595 -286 -359 -477
-717 -625 -1173 -221 -678 -273 -1415 -152 -2129 165 -976 704 -1860 1499
-2460 232 -175 641 -433 861 -544 360 -180 733 -288 1185 -344 163 -20 727
-17 915 5 373 45 685 124 1052 268 164 65 468 212 628 304 536 307 974 729
1298 1250 97 156 252 456 262 505 l6 35 -20 -25 c-12 -14 -110 -153 -218 -310
-324 -467 -444 -617 -643 -796 -83 -75 -235 -199 -266 -217 -6 -3 34 40 89 96
326 335 577 691 792 1123 86 173 112 217 145 243 51 41 72 79 164 294 169 394
264 748 307 1147 19 170 16 563 -5 745 -104 888 -447 1641 -1067 2341 -330
373 -715 667 -1164 889 -395 196 -773 310 -1195 360 -127 16 -609 28 -705 19z
m-497 -210 c-3 -3 -75 -22 -159 -44 -252 -62 -649 -219 -928 -367 -546 -288
-1002 -656 -1294 -1043 -319 -424 -598 -1006 -726 -1515 -123 -490 -152 -926
-91 -1347 30 -203 104 -569 146 -720 166 -605 473 -1169 930 -1712 183 -216
177 -208 109 -149 -190 164 -379 386 -560 658 -393 591 -615 1168 -706 1835
-30 220 -38 702 -15 917 49 458 169 878 372 1303 366 762 875 1297 1654 1737
397 224 742 355 1125 428 129 25 151 28 143 19z m1062 -230 c747 -76 1316
-303 1874 -750 231 -185 473 -428 657 -659 446 -561 701 -1221 760 -1970 14
-183 6 -613 -15 -770 -75 -564 -236 -1022 -534 -1515 -79 -132 -90 -145 -118
-148 -20 -2 -114 29 -275 91 -344 133 -323 120 -619 352 -85 67 -184 143 -220
170 -119 90 -178 155 -246 267 -105 173 -131 195 -172 143 -38 -48 -38 -96 1
-188 59 -135 71 -218 71 -487 1 -129 -3 -253 -7 -274 -7 -34 -44 -75 -255
-288 -286 -288 -271 -279 -383 -207 -161 105 -218 138 -224 130 -5 -9 152
-120 246 -174 77 -45 99 -38 234 78 90 77 90 77 93 49 3 -31 -310 -823 -369
-935 -43 -80 -133 -177 -197 -212 -68 -37 -151 -54 -333 -68 -201 -15 -637 -7
-819 16 -210 26 -390 61 -419 83 -52 38 -101 264 -101 462 0 124 9 194 41 334
26 116 21 148 -43 233 -131 177 -161 329 -123 614 26 189 20 394 -13 447 -17
25 -66 -6 -120 -77 -140 -184 -359 -352 -677 -519 -93 -49 -199 -106 -235
-127 -123 -70 -244 -108 -480 -151 -154 -28 -142 -34 -259 126 -430 584 -673
1164 -757 1805 -22 162 -25 588 -6 750 85 734 370 1441 795 1975 240 302 521
563 838 780 583 398 1168 597 1859 634 111 6 398 -4 550 -20z m-1050 -7533
c58 -11 157 -25 220 -32 148 -17 606 -17 769 0 77 8 127 9 133 3 15 -15 -62
-40 -164 -54 -120 -15 -482 -15 -623 0 -169 19 -416 62 -447 78 -58 30 -33 31
112 5z"/>
<path d="M9070 14564 c-153 -9 -397 -38 -546 -65 -564 -101 -835 -247 -1136
-614 -103 -124 -103 -124 116 79 170 156 302 253 429 311 134 62 463 142 747
182 181 25 672 25 860 0 291 -39 462 -81 575 -140 95 -50 221 -182 273 -287
65 -131 84 -216 89 -411 5 -145 3 -176 -16 -248 -11 -46 -34 -106 -50 -134
-39 -69 -131 -160 -189 -188 -81 -40 -119 -37 -472 40 -865 186 -1193 232
-1526 217 -238 -11 -389 -43 -529 -113 -97 -48 -159 -97 -251 -198 -43 -48
-111 -109 -150 -136 -130 -87 -143 -126 -94 -271 48 -139 86 -213 129 -250 39
-33 290 -173 297 -165 2 2 -2 36 -9 75 -8 40 -12 72 -9 72 3 0 32 -17 66 -38
71 -45 98 -56 306 -118 209 -62 268 -74 384 -74 168 0 287 44 422 156 85 71
116 79 152 41 13 -14 26 -47 33 -82 27 -145 100 -289 185 -363 35 -32 64 -75
64 -98 0 -14 -57 1 -96 26 -90 57 -151 49 -259 -35 -67 -53 -87 -59 -140 -47
-45 9 -101 1 -120 -19 -8 -8 -16 -25 -20 -39 -5 -21 -1 -27 25 -37 21 -8 41
-8 66 -1 53 14 93 3 153 -42 62 -47 93 -50 141 -15 62 46 93 48 203 15 54 -16
118 15 152 74 34 58 32 97 -10 173 -44 80 -51 124 -30 183 20 57 59 98 102
106 18 3 117 -2 220 -11 203 -19 277 -16 376 15 82 26 118 25 145 -2 56 -60
50 -109 -27 -218 -85 -122 -161 -348 -161 -481 0 -29 10 -87 22 -128 32 -109
32 -279 0 -373 -32 -93 -92 -181 -178 -263 -44 -42 -74 -79 -74 -90 0 -11 11
-40 25 -64 14 -23 25 -54 25 -67 0 -34 -38 -66 -75 -62 -24 2 -34 11 -48 43
-25 53 -56 85 -81 85 -25 0 -57 -19 -202 -118 -80 -54 -128 -79 -188 -97 -166
-50 -231 -60 -411 -60 -186 0 -245 11 -380 67 -38 16 -87 37 -108 45 -47 20
-58 11 -26 -23 40 -44 470 -319 669 -428 124 -67 131 -72 155 -109 14 -22 18
-45 17 -97 -3 -101 14 -117 140 -136 169 -25 191 -41 288 -204 39 -66 74 -119
78 -117 73 40 328 194 392 237 190 127 435 350 482 437 36 67 51 151 43 239
-9 103 24 982 39 1014 8 19 30 31 89 52 105 36 158 69 228 140 67 67 123 173
139 258 6 30 15 170 20 310 5 140 9 255 10 256 0 0 28 30 63 65 73 76 115 156
152 289 15 52 45 158 67 235 87 300 100 362 95 460 -12 234 -161 534 -354 716
-391 368 -891 586 -1493 648 -111 12 -396 20 -490 15z m215 -1614 c279 -30
887 -147 941 -181 35 -21 57 -65 52 -101 -5 -34 -50 -36 -98 -4 -100 66 -192
83 -336 62 -196 -30 -395 -19 -583 31 -185 49 -216 54 -341 54 -178 1 -794
-64 -925 -97 -133 -34 -287 -145 -346 -249 -40 -71 -60 -87 -118 -93 -65 -6
-89 1 -128 38 -62 58 -38 112 87 194 182 120 392 242 460 266 104 38 166 48
470 75 220 20 307 24 515 20 138 -2 295 -9 350 -15z"/>
<path d="M8715 11192 c-75 -40 -225 -178 -225 -208 0 -20 21 -16 110 23 60 26
73 28 160 24 238 -9 279 -6 382 27 109 36 139 34 279 -13 84 -29 99 -30 99
-11 0 57 -295 186 -424 186 -22 0 -77 -5 -123 -12 -73 -11 -87 -10 -118 5 -49
23 -60 22 -140 -21z"/>
<path d="M9189 10855 c-17 -9 -89 -18 -200 -25 -191 -13 -234 -25 -234 -70 0
-19 9 -26 55 -42 92 -31 154 -33 248 -8 101 27 150 23 206 -19 83 -61 205
-141 216 -141 16 0 -15 52 -107 177 -104 143 -127 159 -184 128z"/>
<path d="M9098 8778 c-22 -8 -28 -16 -28 -38 0 -40 29 -55 75 -40 44 15 62 35
46 54 -19 23 -63 34 -93 24z"/>
<path d="M9332 8525 c-106 -17 -195 -34 -197 -37 -3 -3 7 -11 23 -17 22 -9 35
-9 58 1 16 6 81 15 144 18 90 5 127 11 168 29 28 13 52 27 52 32 0 13 -37 10
-248 -26z"/>
<path d="M9091 7859 c-39 -48 -36 -80 11 -108 36 -23 67 -14 94 26 14 22 14
27 -2 51 -21 34 -55 72 -64 72 -4 0 -21 -18 -39 -41z"/>
<path d="M6345 6603 c-35 -9 -72 -42 -89 -77 -14 -31 -16 -123 -16 -923 0
-1005 -6 -935 80 -980 52 -28 82 -29 138 -3 77 35 79 46 85 475 5 363 5 371
30 437 100 274 433 383 681 224 85 -55 139 -124 184 -240 13 -34 17 -106 22
-428 5 -370 6 -388 26 -414 38 -51 70 -68 129 -68 62 0 98 20 130 75 19 32 20
51 19 414 0 438 -4 471 -80 625 -40 79 -61 108 -138 185 -124 123 -239 188
-394 220 -170 37 -393 -3 -544 -95 -27 -17 -52 -30 -56 -30 -4 0 -8 107 -8
238 -1 265 -7 298 -58 337 -33 25 -102 39 -141 28z"/>
<path d="M9545 6596 c-45 -20 -83 -70 -90 -119 -3 -23 -5 -357 -3 -742 l3
-700 23 -65 c61 -169 172 -281 334 -337 95 -33 209 -36 258 -8 96 57 98 202 3
258 -17 10 -59 22 -93 28 -100 16 -154 50 -193 124 -22 40 -22 47 -27 757 -5
704 -5 717 -26 744 -48 64 -126 89 -189 60z"/>
<path d="M10273 6590 c-30 -15 -48 -34 -62 -64 -20 -41 -21 -57 -21 -637 1
-639 4 -686 53 -807 111 -275 350 -448 657 -477 146 -13 329 30 460 110 122
74 261 241 310 373 30 80 50 160 50 201 0 52 8 33 24 -55 61 -346 340 -599
693 -629 111 -10 238 14 377 71 61 25 116 48 123 51 9 3 12 -64 15 -269 3
-252 5 -276 23 -308 29 -49 101 -84 156 -75 52 9 105 55 119 103 6 24 10 355
10 932 l0 895 -29 51 c-63 110 -192 111 -256 3 -19 -32 -20 -57 -25 -419 -6
-421 -6 -421 -70 -520 -179 -279 -591 -280 -769 -1 -65 100 -65 99 -71 521 -5
362 -6 387 -25 419 -44 74 -118 98 -197 63 -35 -15 -50 -29 -67 -64 -20 -42
-21 -59 -22 -344 -1 -173 -5 -278 -9 -249 -28 190 -139 381 -295 508 -120 97
-308 167 -450 167 -130 0 -286 -52 -413 -139 l-61 -41 -3 268 c-3 246 -5 270
-23 301 -44 75 -126 100 -202 61z m879 -802 c284 -141 351 -509 133 -737 -98
-103 -211 -147 -357 -139 -73 5 -99 11 -160 40 -88 43 -144 90 -191 161 -151
228 -69 544 173 667 82 42 120 50 226 47 94 -2 106 -5 176 -39z"/>
<path d="M5233 6126 c-207 -51 -362 -242 -363 -448 0 -190 100 -356 262 -433
94 -44 167 -55 396 -55 151 0 190 -3 219 -17 46 -21 73 -67 73 -121 0 -53 -22
-93 -64 -118 -28 -17 -61 -19 -391 -24 -352 -5 -361 -5 -396 -28 -49 -30 -73
-81 -67 -144 6 -62 50 -111 114 -127 56 -14 656 -15 743 0 140 22 262 116 331
254 34 67 35 74 35 180 0 106 -1 113 -37 187 -40 85 -110 167 -173 203 -90 52
-125 58 -387 64 -229 6 -249 7 -275 27 -102 76 -98 216 7 278 33 20 55 21 375
26 376 6 379 6 427 72 17 24 23 47 23 85 0 56 -18 90 -69 127 -26 20 -41 21
-379 23 -256 1 -366 -2 -404 -11z"/>
<path d="M8485 6131 c-132 -22 -255 -76 -362 -157 -273 -209 -377 -580 -250
-894 65 -161 201 -314 344 -388 228 -118 541 -118 750 0 70 39 159 122 184
169 52 102 -18 219 -131 219 -47 0 -61 -7 -185 -95 -126 -90 -306 -99 -462
-24 -64 30 -162 131 -195 199 l-26 55 546 5 c607 6 590 4 632 73 50 82 5 313
-91 473 -98 162 -286 300 -474 349 -73 19 -212 27 -280 16z m288 -344 c110
-52 205 -148 231 -234 l7 -23 -420 0 c-478 0 -445 -7 -391 86 48 85 151 163
265 201 25 8 76 12 135 10 86 -2 103 -6 173 -40z"/>
<path d="M10801 4166 c-9 -11 -11 -111 -9 -393 4 -422 5 -424 76 -517 77 -102
197 -160 332 -160 99 0 160 21 240 79 40 29 50 43 50 65 0 30 -22 60 -44 60
-7 0 -28 -12 -47 -26 -19 -14 -56 -37 -84 -51 -144 -74 -354 16 -400 171 -11
36 -15 100 -15 233 l0 183 173 1 c191 1 213 5 234 36 14 20 13 24 -13 48 -27
25 -27 25 -215 25 l-189 0 0 118 c0 78 -4 122 -12 130 -16 16 -63 15 -77 -2z"/>
<path d="M11579 4158 c-36 -12 -55 -58 -38 -90 16 -31 28 -38 65 -38 77 0 88
107 14 132 -8 3 -27 1 -41 -4z"/>
<path d="M9800 3909 c-323 -54 -455 -465 -223 -697 182 -182 492 -144 632 76
86 137 79 318 -19 454 -91 128 -240 191 -390 167z m186 -133 c60 -28 115 -80
146 -139 31 -57 33 -213 4 -267 -37 -68 -77 -109 -138 -139 -51 -26 -73 -31
-133 -31 -60 0 -82 5 -133 31 -108 54 -166 147 -166 269 0 122 58 215 166 269
81 41 176 43 254 7z"/>
<path d="M11567 3892 c-15 -17 -17 -58 -17 -386 0 -234 4 -374 10 -387 7 -13
21 -19 45 -19 31 0 35 3 45 39 7 26 9 164 7 392 -4 328 -5 353 -22 366 -26 18
-49 16 -68 -5z"/>
<path d="M12082 3899 c-177 -30 -302 -162 -322 -341 -13 -114 -13 -714 0 -739
15 -27 55 -24 79 7 20 25 21 40 21 215 0 104 3 189 6 189 3 0 23 -15 45 -33
166 -143 388 -131 539 29 89 94 126 209 108 337 -30 220 -248 374 -476 336z
m181 -115 c61 -21 132 -84 165 -148 22 -43 26 -64 26 -131 0 -67 -4 -88 -26
-131 -34 -66 -105 -128 -170 -150 -74 -24 -181 -16 -241 19 -62 36 -123 108
-143 169 -20 62 -15 167 11 218 34 69 116 140 185 161 44 13 145 10 193 -7z"/>
<path d="M12807 3900 c-91 -16 -162 -84 -187 -178 -25 -97 29 -212 123 -260
42 -22 65 -26 203 -31 l156 -6 29 -33 c23 -26 29 -42 29 -78 0 -39 -5 -51 -34
-80 l-34 -34 -198 -1 c-110 -1 -210 -4 -224 -8 -35 -10 -50 -55 -27 -79 16
-15 42 -17 230 -17 245 0 283 8 340 76 75 86 75 201 1 288 -52 60 -96 73 -262
79 -125 4 -147 7 -175 26 -79 53 -76 167 6 216 29 18 51 20 213 20 107 0 194
5 213 11 28 10 32 15 29 42 -5 50 -30 57 -218 56 -91 -1 -187 -5 -213 -9z"/>
<path d="M8938 3881 c-153 -60 -267 -221 -268 -376 0 -125 68 -266 157 -328
164 -113 345 -109 511 12 47 35 53 60 21 92 -24 24 -48 19 -99 -22 -111 -89
-291 -77 -393 25 -114 113 -116 300 -6 415 110 114 287 123 416 21 35 -27 69
-25 88 4 12 18 14 30 6 44 -12 22 -133 98 -189 118 -55 20 -187 17 -244 -5z"/>
</g>
</svg>
